<?xml version="1.0" encoding="UTF-8"?>
<svg id="Capa_2" data-name="Capa 2" xmlns="http://www.w3.org/2000/svg" viewBox="0 0 24.93 24.65">
  <g id="Capa_1-2" data-name="Capa 1">
    <g>
      <path d="m20.96,1.99c-2.15-.02-4.3,0-6.45,0-2.02,0-4.05-.06-6.07,0-.88.03-1.68.32-2.35.82,0-.18,0-.35,0-.53,0-1.16-.83-2.13-2-2.25-.52-.06-1.06-.01-1.57-.01H.72C.33.02,0,.35,0,.74s.33.72.72.72c1.04,0,2.09,0,3.13,0,.05,0,.16.01.17,0,.05.01.1.02.14.04.02,0,.03,0,.03,0,0,0,0,0,.03.02.05.03.11.06.16.1-.1-.07.01.02.05.05.01.01.06.08.08.09.02.04.05.08.07.12,0,.02,0,0,0,.02.02.06.03.11.05.17,0,.02,0,.02.01.03,0,0,0,.01,0,.04,0,.01,0,.05,0,.07,0,.02,0,.03,0,.05,0,.56,0,1.12,0,1.68v1.64s.01.04.01.06c-.02.27-.03.55-.04.83-.08,2.44-.17,4.88-.25,7.32-.03.84-.09,1.65.22,2.45.57,1.46,1.95,2.31,3.48,2.36,4.28.15,8.58,0,12.86,0,1.81-.08,3.37-1.3,3.65-3.14.11-.7.08-1.44.1-2.15.08-2.35.16-4.7.24-7.05.08-2.45-1.46-4.26-3.97-4.27Zm-.02,15.17h-11.19c-.55,0-1.1.02-1.64,0-1.37-.06-2.3-1.03-2.31-2.4-.02-1.83.12-3.68.19-5.5.03-1,.07-2,.1-3,.03-.92.12-1.8.96-2.4.64-.46,1.35-.42,2.09-.42h9.7c1.63,0,4.03-.4,4.6,1.66.13.46.11.99.07,1.5h-13.64c-.93,0-.93,1.45,0,1.45h13.57c-.04,1.07-.07,2.14-.11,3.22-.07,1.98.51,5.79-2.38,5.92Z"/>
      <path d="m8.75,20.31c-1.2,0-2.17.97-2.17,2.17s.97,2.17,2.17,2.17,2.17-.97,2.17-2.17-.97-2.17-2.17-2.17Zm0,2.66c-.27,0-.49-.22-.49-.49s.22-.49.49-.49.49.22.49.49-.22.49-.49.49Z"/>
      <path d="m18.01,20.31c-1.2,0-2.17.97-2.17,2.17s.97,2.17,2.17,2.17,2.17-.97,2.17-2.17-.97-2.17-2.17-2.17Zm0,2.66c-.27,0-.49-.22-.49-.49s.22-.49.49-.49.49.22.49.49-.22.49-.49.49Z"/>
    </g>
  </g>
</svg>