<?xml version="1.0" encoding="UTF-8"?>
<svg id="Capa_2" data-name="Capa 2" xmlns="http://www.w3.org/2000/svg" viewBox="0 0 108.56 59">
  <defs>
    <style>
      .cls-1 {
        letter-spacing: .33em;
      }

      .cls-2 {
        font-family: Biko, Biko;
        font-size: 18.97px;
      }

      .cls-3 {
        letter-spacing: .34em;
      }

      .cls-4 {
        letter-spacing: .37em;
      }
    </style>
  </defs>
  <g id="Capa_1-2" data-name="Capa 1">
    <g>
      <g>
        <polygon points="28.42 0 28.42 0 28.42 30.97 28.42 30.97 33.42 30.97 33.42 0 28.42 0"/>
        <polygon points="5 25.97 5 0 0 0 0 30.97 2.54 30.97 5 30.97 13.96 30.97 13.96 25.97 5 25.97"/>
        <path d="m93.07,0c-8.55,0-15.49,6.93-15.49,15.48s6.94,15.49,15.49,15.49,15.49-6.93,15.49-15.49S101.63,0,93.07,0Zm0,25.94c-5.77,0-10.45-4.68-10.45-10.46s4.68-10.45,10.45-10.45,10.46,4.68,10.46,10.45-4.68,10.46-10.46,10.46Z"/>
        <polygon points="58.16 22.5 51.4 0 46.17 0 46.17 0 55.48 30.97 60.71 30.97 70.52 0 65.28 0 58.16 22.5"/>
      </g>
      <text class="cls-2" transform="translate(12.04 54.03)"><tspan class="cls-1" x="0" y="0">Ó</tspan><tspan class="cls-4" x="21.68" y="0">T</tspan><tspan class="cls-3" x="38.56" y="0">I</tspan><tspan class="cls-1" x="50.15" y="0">CA</tspan></text>
    </g>
  </g>
</svg>