<?xml version="1.0" encoding="UTF-8"?>
<svg id="Capa_2" data-name="Capa 2" xmlns="http://www.w3.org/2000/svg" viewBox="0 0 21.02 25">
  <g id="Capa_1-2" data-name="Capa 1">
    <g>
      <path d="m3.96,20.73v3.91c0,.49.76.49.76,0v-3.91c0-.49-.76-.49-.76,0Z"/>
      <path d="m16.39,20.73v3.91c0,.49.76.49.76,0v-3.91c0-.49-.76-.49-.76,0Z"/>
      <path d="m20.21,18.26c-1.21-.79-2.5-1.48-3.84-2.04-1.34-.57-2.68-.95-4.03-1.14-.18-.03-.29-.03-.44-.04-.91-.1-1.82-.1-2.73,0-.14.01-.19.02-.41.04-.99.13-1.98.36-2.99.73-1.45.53-2.84,1.21-4.17,2.01-.46.28-1.37.64-1.53,1.2-.18.63,0,1.75,0,2.41v3.22c0,.49.76.49.76,0v-5.07s0-.22-.01-.36c.13-.06.27-.18.39-.26,1.07-.7,2.2-1.32,3.37-1.85,1.3-.58,2.67-1.06,4.09-1.31.08.51.28,1.01.5,1.47.05.11.11.22.17.33-.7,2.27-1.06,4.68-1.28,7.04-.04.48.71.48.76,0,.21-2.25.56-4.54,1.21-6.71h1.04c.65,2.17,1,4.46,1.21,6.71.04.48.8.49.76,0-.22-2.36-.57-4.76-1.27-7.03.03-.06.06-.12.08-.17.26-.51.49-1.06.58-1.63.97.17,1.92.44,2.84.78,1.4.52,2.74,1.2,4.01,1.98.31.19.62.46.95.61.01,0,.02.02.03.02,0,.05.01.13.01.28v5.16c0,.49.76.49.76,0v-4.98c0-.84-.13-.96-.81-1.4ZM.72,19.29c-.02.05-.03.04,0,0h0Zm10.9-3.27c-.03.12-.07.23-.11.35-.02.06-.04.12-.07.18,0,.03-.02.05-.03.08,0,.01,0,.01,0,.01,0,0,0,0,0,.02-.08.18-.17.35-.26.52h-1.15c-.09-.17-.18-.34-.26-.52,0,0,0-.02-.01-.03,0-.02-.02-.04-.03-.07-.02-.06-.05-.12-.07-.17-.04-.11-.08-.23-.11-.35-.03-.11-.06-.22-.08-.33.17-.02.34-.05.51-.06.59-.04,1.17,0,1.75.06-.02.1-.04.19-.07.31Z"/>
      <path d="m5.25,6.35c.24.07.5.11.75.16,0,.9,0,1.8,0,2.7,0,1.7.86,3.29,2.37,4.11,1.68.91,3.78.67,5.21-.59,1.15-1.01,1.53-2.4,1.53-3.88v-2.49c.11.13.21.25.32.38.1.11.22.13.33.1.14,0,.27-.09.3-.27.28-1.56.36-3.11-.62-4.45-.84-1.15-2.27-1.76-3.65-1.38-1.37-1.24-3.59-.8-4.96.22-1.59,1.18-2.19,3.21-1.84,5.12.02.13.15.23.26.26Zm8.51,5.02c-.95,1.51-2.89,2.14-4.55,1.51-1.51-.57-2.45-2.04-2.46-3.63,0-.88,0-1.77,0-2.65.9.08,1.82,0,2.65-.33,1.16-.47,2.12-1.29,2.82-2.32.88.24,1.54.83,2.14,1.51v2.61c0,1.15.05,2.26-.59,3.29ZM7.16,1.66c1.14-.9,3.15-1.43,4.27-.23.09.09.25.14.37.1,1.24-.43,2.5.17,3.17,1.25.56.89.6,1.85.48,2.83-.12-.14-.24-.29-.36-.43-.03-.1-.1-.16-.18-.2-.75-.85-1.57-1.61-2.74-1.82-.17-.03-.33.02-.43.17-.63,1.01-1.57,1.85-2.69,2.27-1.07.4-2.26.33-3.36.07-.2-1.48.28-3.06,1.47-4.01Z"/>
    </g>
  </g>
</svg>